<svg xmlns="http://www.w3.org/2000/svg" viewBox="0 0 640 512"><path fill="#94A3B8" d="M38.8 5.1C28.4-3.1 13.3-1.2 5.1 9.2S-1.2 34.7 9.2 42.9l592 464c10.4 8.2 25.5 6.3 33.7-4.1s6.3-25.5-4.1-33.7L525.6 386.7c39.6-40.6 66.4-86.1 79.9-118.4c3.3-7.9 3.3-16.7 0-24.6c-14.9-35.7-46.2-87.7-93-131.1C465.5 68.8 400.8 32 320 32c-68.2 0-125 26.3-169.1 60.8L38.8 5.1zM223.1 149.5C248.6 126.2 282.7 112 320 112c79.5 0 144 64.5 144 144c0 24.9-6.3 48.3-17.4 68.7L408 294.5c5.2-11.8 8-24.8 8-38.5c0-53-43-96-96-96c-2.8 0-5.6 .1-8.4 .4c27.2 23.8 37.4 60.6 25 91.9l-49.5-38.9zM320 400c-79.5 0-144-64.5-144-144c0-24.9 6.3-48.3 17.4-68.7L150.2 154.6C114.9 184.3 89.4 219.3 71.5 243.9c-7.3 10-7.3 23.7 0 33.7C100.4 311.2 182.8 400 320 400c36.1 0 69.1-7.6 99.2-20.6l-46.5-36.5c-16.1 5-33.2 7.6-51.1 7.6z"/></svg>
